<svg xmlns="http://www.w3.org/2000/svg" viewBox="0 0 48 48" fill="none">
  <defs>
    <linearGradient id="g1" x1="0" y1="0" x2="1" y2="1">
      <stop offset="0%" stop-color="#E8C89E"/>
      <stop offset="50%" stop-color="#C2884D"/>
      <stop offset="100%" stop-color="#7A4A1E"/>
    </linearGradient>
    <linearGradient id="g2" x1=".5" y1="0" x2=".5" y2="1">
      <stop offset="0%" stop-color="#B8875A"/>
      <stop offset="100%" stop-color="#5C3310"/>
    </linearGradient>
    <linearGradient id="g3" x1="0" y1="0" x2=".5" y2="1">
      <stop offset="0%" stop-color="#F5DDB8" stop-opacity=".85"/>
      <stop offset="100%" stop-color="#D4A574" stop-opacity="0"/>
    </linearGradient>
  </defs>
  <!-- Sfondo beige app -->
  <rect width="48" height="48" rx="10" fill="#F5EDE3"/>
  <!-- Stelo -->
  <path d="M24 44C24 44,23.5 34,23 28C22.5 22,23.5 12,24 6" stroke="url(#g2)" stroke-width="2.8" stroke-linecap="round"/>
  <!-- Rametti -->
  <path d="M23.5 34C21 32,16 30,12 29.5" stroke="url(#g2)" stroke-width="2" stroke-linecap="round" fill="none"/>
  <path d="M23.5 30C26.5 28,31 26.5,36 26" stroke="url(#g2)" stroke-width="2" stroke-linecap="round" fill="none"/>
  <path d="M23.5 24C21 22.5,17 21.5,13 21" stroke="url(#g2)" stroke-width="1.8" stroke-linecap="round" fill="none"/>
  <path d="M24 20C26 18.5,30 17.5,34 17" stroke="url(#g2)" stroke-width="1.8" stroke-linecap="round" fill="none"/>
  <!-- Chicchi SX -->
  <ellipse cx="10" cy="28.5" rx="6.5" ry="3.5" transform="rotate(-40 10 28.5)" fill="url(#g1)"/>
  <ellipse cx="9.3" cy="27.5" rx="4" ry="2" transform="rotate(-40 9.3 27.5)" fill="url(#g3)"/>
  <ellipse cx="11.5" cy="20" rx="6" ry="3.2" transform="rotate(-35 11.5 20)" fill="url(#g1)"/>
  <ellipse cx="11" cy="19.1" rx="3.5" ry="1.8" transform="rotate(-35 11 19.1)" fill="url(#g3)"/>
  <ellipse cx="17" cy="13" rx="5.2" ry="2.8" transform="rotate(-25 17 13)" fill="url(#g1)"/>
  <ellipse cx="16.5" cy="12.2" rx="3" ry="1.5" transform="rotate(-25 16.5 12.2)" fill="url(#g3)"/>
  <!-- Chicchi DX -->
  <ellipse cx="38" cy="25" rx="6.5" ry="3.5" transform="rotate(40 38 25)" fill="url(#g1)"/>
  <ellipse cx="38.7" cy="24" rx="4" ry="2" transform="rotate(40 38.7 24)" fill="url(#g3)"/>
  <ellipse cx="36" cy="16.5" rx="6" ry="3.2" transform="rotate(35 36 16.5)" fill="url(#g1)"/>
  <ellipse cx="36.5" cy="15.6" rx="3.5" ry="1.8" transform="rotate(35 36.5 15.6)" fill="url(#g3)"/>
  <ellipse cx="30" cy="10" rx="5.2" ry="2.8" transform="rotate(25 30 10)" fill="url(#g1)"/>
  <ellipse cx="30.5" cy="9.2" rx="3" ry="1.5" transform="rotate(25 30.5 9.2)" fill="url(#g3)"/>
  <!-- Chicco apice -->
  <ellipse cx="24" cy="6.5" rx="4.5" ry="2.5" transform="rotate(-5 24 6.5)" fill="url(#g1)"/>
  <ellipse cx="23.6" cy="5.8" rx="2.8" ry="1.3" transform="rotate(-5 23.6 5.8)" fill="url(#g3)"/>
  <!-- Ariste -->
  <line x1="24" y1="5" x2="21" y2="1" stroke="#A0764A" stroke-width="1.2" stroke-linecap="round" opacity=".8"/>
  <line x1="24.5" y1="5.5" x2="28" y2="1.5" stroke="#A0764A" stroke-width="1.2" stroke-linecap="round" opacity=".8"/>
  <line x1="17" y1="12" x2="13" y2="8" stroke="#A0764A" stroke-width="1" stroke-linecap="round" opacity=".6"/>
  <line x1="30" y1="9" x2="34" y2="5" stroke="#A0764A" stroke-width="1" stroke-linecap="round" opacity=".6"/>
</svg>
